<?xml version="1.0" encoding="UTF-8"?>
<!DOCTYPE svg  PUBLIC '-//W3C//DTD SVG 1.1//EN'  'http://www.w3.org/Graphics/SVG/1.1/DTD/svg11.dtd'>
<svg fill="current" clip-rule="evenodd" fill-rule="evenodd" stroke-linejoin="round" stroke-miterlimit="2" version="1.1" viewBox="0 0 8498 4599" xml:space="preserve" xmlns="http://www.w3.org/2000/svg">
    <g transform="matrix(4.1667 0 0 4.1667 0 -1497)">
        <g transform="matrix(2.9875 0 0 2.9875 -1987.4 -1818.6)">
            <path d="m1152.7 794.89c-5.9-12.092-8.52-22.941-9.68-29.996-50.9 1.874-92.34 40.789-98.16 90.591 16.88 7.392 45.53 23.327 58.49 50.277 1.43-43.515 20.08-82.669 49.35-110.87z" fill-rule="nonzero"/>
        </g>
        <g transform="matrix(2.9875 0 0 2.9875 -1987.4 -1818.6)">
            <path d="m1151 764.91c1.1 6.05 3.32 14.778 7.76 24.462 7.66-6.675 15.97-12.634 24.8-17.783-10.18-3.892-21.12-6.23-32.56-6.679z" fill-rule="nonzero"/>
        </g>
        <g transform="matrix(2.9875 0 0 2.9875 -1987.4 -1818.6)">
            <path d="m1098.2 913.47c-10.02-25.717-36.97-41.747-53.98-49.627-0.04 1.225-0.07 2.452-0.07 3.687 0 44.553 28.37 82.467 68.03 96.692-4.18-12.009-6.98-24.662-8.21-37.773-2.05-4.059-3.97-8.374-5.77-12.979z" fill-rule="nonzero"/>
        </g>
        <g transform="matrix(2.9875 0 0 2.9875 -1988.9 -1820.8)">
            <path d="m1169.3 967.78c45.95-10.229 80.29-51.225 80.29-100.25 0-1.781-0.04-3.552-0.13-5.312-22.55-4.416-42.08-12.156-58.12-23.066-14.13-9.609-25.59-21.664-34.06-35.829-1.7-2.854-3.21-5.672-4.56-8.427-29.27 28.203-47.92 67.357-49.35 110.87 0.76 1.587 1.48 3.206 2.13 4.87 8.75 22.457 24.64 50.618 63.8 57.141z" fill-rule="nonzero"/>
        </g>
        <g transform="matrix(2.9875 0 0 2.9875 -1988.2 -1819.3)">
            <path d="m1248.7 854.13c-4.94-37.912-30.56-69.306-65.17-82.54-8.83 5.149-17.14 11.108-24.8 17.783 1.53 3.338 3.32 6.787 5.43 10.282 16.92 28.066 45.34 46.365 84.54 54.475z" fill-rule="nonzero"/>
        </g>
        <g transform="matrix(2.9875 0 0 2.9875 -1989.6 -1820.1)">
            <path d="m1149.2 970.21c-7.53-3.014-14.41-7.017-20.59-12.039-9.76-7.93-17.86-18.387-24.58-31.723 1.23 13.111 4.03 25.764 8.21 37.773 10.83 3.887 22.5 6.018 34.68 6.018 0.76 0 1.52-0.012 2.28-0.029z" fill-rule="nonzero"/>
        </g>
        <g transform="matrix(2.9875 0 0 2.9875 -1987.4 -1818.6)">
            <path d="m1252 920.62c-14.75 29.223-41.33 51.152-72.91 60.16-19.6 5.592-40.03 5.993-59.47 1.378-8.89-2.111-17.57-5.268-25.88-9.461-28.04-14.158-48.91-38.436-58.76-68.361-9.85-29.924-7.47-61.85 6.69-89.897 14.75-29.224 41.32-51.152 72.91-60.16 28.57-8.149 58.88-5.279 85.35 8.082 0.3 0.154 0.59 0.326 0.89 0.482 57.32 29.555 80.3 100.09 51.18 157.78zm-31.54-164.77c-4.87-3.319-9.98-6.389-15.38-9.116-49.03-24.751-106.08-16.963-146.47 15.194l0.02-0.03s-0.01 0.017-0.03 0.034c-1.94 1.545-3.84 3.152-5.7 4.809 0 0-13.94 13.163-40.72 14.452-0.01 1e-3 -0.02 0-0.03 1e-3 0 0-20.046 1.383-33.181 3.985h-3e-3s-23.332 4.163-34.174 8.77l3e-3 -2e-3s-21.597 7.577-26.91 15.207c0 0 25.929-8.515 40.606-6.098 9.504 0.978 23.451 15.17-26.71 25.68-54.891 11.502-63.758 34.807-63.758 34.807 25.818-12.904 63.384-16.694 73.624-5.073 10.24 11.623-15.467 16.185-15.467 16.185-73.368 9.847-126.08 58.123-126.08 58.123 38.339-23.401 74.827 0.124 74.827 0.124-61.86 50.193-154.98 44.206-154.98 44.206 79.291 42.485 144.62 18.999 205.73 5.031 61.112-13.969 66.406 14.3 57.255 21.064-9.151 6.77-48.121 10.96-48.121 10.96 73.991 23.9 102.36-1.79 123.86-12.48 12.3-6.11 18.95-11.426 49.34-1.65 8.19 2.22 16.47 3.61 24.75 4.26 53.55 4.22 106.92-23.593 132.58-74.428 31.15-61.702 10.77-136.1-44.88-174.02z" fill-rule="nonzero"/>
        </g>
    </g>
    <g transform="matrix(2.7089 0 0 2.9875 -6741.5 -10972)">
        <g transform="matrix(433.33 0 0 433.33 2470 5198)">
            <path d="m0.778-0.568c0 0.034-0.014 0.063-0.041 0.087-0.025 0.022-0.056 0.033-0.09 0.033-0.035 0-0.065-0.011-0.091-0.033-0.027-0.024-0.041-0.053-0.041-0.087 0-0.011 1e-3 -0.021 4e-3 -0.029-0.07 0-0.133 0.037-0.19 0.108-0.053 0.068-0.08 0.138-0.08 0.209 0 0.135 0.088 0.202 0.263 0.202h0.246c-0.01 0.052-0.05 0.078-0.119 0.078h-0.18c-0.112-0-0.203-0.016-0.273-0.049-0.096-0.045-0.144-0.118-0.143-0.219 1e-3 -0.057 0.018-0.113 0.052-0.17 0.047-0.077 0.113-0.139 0.198-0.184 0.083-0.043 0.172-0.065 0.265-0.065h0.098c0.031 0 0.06 0.012 0.084 0.036 0.025 0.024 0.038 0.052 0.038 0.083z" fill-rule="nonzero"/>
        </g>
        <g transform="matrix(433.33 0 0 433.33 2797.1 5198)">
            <path d="m0.831-0.332c-0.013 0.052-0.052 0.078-0.117 0.078h-0.306c0.011 7e-3 0.02 0.02 0.027 0.039 6e-3 0.019 9e-3 0.036 8e-3 0.05-5e-3 0.054-0.029 0.097-0.072 0.128-0.041 0.03-0.095 0.044-0.161 0.045-0.077 0-0.136-0.015-0.177-0.046-0.037-0.027-0.055-0.063-0.055-0.108 0-8e-3 0-0.017 2e-3 -0.026 8e-3 -0.049 0.033-0.088 0.073-0.116 0.043-0.029 0.1-0.044 0.172-0.044h0.606zm-0.532 0.078h-0.112l-0.044 0.125c-2e-3 7e-3 -3e-3 0.013-3e-3 0.019 0 0.028 0.026 0.042 0.078 0.042 6e-3 0 0.011-1e-3 0.016-1e-3l0.065-0.185z" fill-rule="nonzero"/>
        </g>
        <g transform="matrix(433.33 0 0 433.33 3048.9 5198)">
            <path d="m0.631-0.078c-0.016 0.052-0.056 0.078-0.12 0.078h-0.185c-0.053-0-0.079-0.017-0.079-0.051-0.035 0.041-0.079 0.061-0.131 0.061-0.038 0-0.069-0.012-0.093-0.035-0.023-0.024-0.035-0.054-0.035-0.092 0-0.068 0.026-0.122 0.078-0.161 0.047-0.036 0.106-0.054 0.175-0.054h0.279l-0.092 0.254h0.203zm-0.315-0.176h-0.108l-0.034 0.114c-2e-3 7e-3 -3e-3 0.014-3e-3 0.019 0 0.029 0.028 0.043 0.083 0.043l0.062-0.176z" fill-rule="nonzero"/>
        </g>
        <g transform="matrix(433.33 0 0 433.33 3321.9 5198)">
            <path d="m0.611-0.078c-7e-3 0.025-0.022 0.045-0.045 0.059-0.021 0.013-0.045 0.019-0.073 0.019h-0.294c-0.056-0-0.103-9e-3 -0.141-0.028-0.048-0.024-0.072-0.06-0.072-0.108 0-5e-3 0-0.01 1e-3 -0.016 6e-3 -0.058 0.037-0.104 0.091-0.137 0.047-0.029 0.103-0.043 0.168-0.043h0.123c0.028 0 0.051 9e-3 0.071 0.026 0.019 0.018 0.029 0.039 0.029 0.065s-0.01 0.047-0.029 0.065c-0.02 0.018-0.044 0.027-0.071 0.027-0.028 0-0.051-9e-3 -0.07-0.027-0.02-0.018-0.029-0.04-0.029-0.066v-0.012h-0.059l-0.038 0.108c-3e-3 9e-3 -5e-3 0.017-5e-3 0.025 0 0.029 0.023 0.043 0.068 0.043h0.375z" fill-rule="nonzero"/>
        </g>
        <g transform="matrix(433.33 0 0 433.33 3583.6 5198)">
            <path d="m0.668-0.078c-8e-3 0.029-0.027 0.05-0.054 0.063-0.02 0.01-0.041 0.015-0.064 0.015h-0.208c-0.037-0-0.055-0.013-0.055-0.04 0-0.01 2e-3 -0.023 7e-3 -0.038l0.035-0.104-0.185 0.152c-0.023 0.02-0.047 0.03-0.072 0.03h-0.101l0.209-0.59h0.176l-0.147 0.415 0.149-0.122c0.038-0.031 0.082-0.047 0.131-0.047 0.032 0 0.049 0.016 0.049 0.05 0 0.012-3e-3 0.025-9e-3 0.041l-0.062 0.175h0.201z" fill-rule="nonzero"/>
        </g>
        <g transform="matrix(433.33 0 0 433.33 4038.5 5198)">
            <path d="m1.097-0.569c0 0.032-0.013 0.06-0.038 0.083-0.026 0.022-0.056 0.034-0.092 0.034s-0.067-0.012-0.092-0.034c-0.025-0.023-0.038-0.051-0.038-0.083 0-7e-3 1e-3 -0.017 4e-3 -0.029-0.015-1e-3 -0.024-2e-3 -0.028-2e-3 -0.049 0-0.074 0.021-0.074 0.062 0 0.021 0.014 0.068 0.043 0.142 0.03 0.074 0.044 0.131 0.044 0.173 0 0.089-0.049 0.156-0.148 0.201-0.073 0.032-0.159 0.049-0.258 0.049-0.09 0-0.17-0.013-0.24-0.038-0.098-0.035-0.147-0.089-0.147-0.162 0-0.106 0.091-0.159 0.271-0.159h0.186l0.036 0.078h-0.145c-0.037 0-0.068 6e-3 -0.095 0.019-0.036 0.017-0.053 0.041-0.053 0.074 0 0.037 0.024 0.065 0.073 0.086 0.037 0.016 0.077 0.024 0.12 0.024 0.054 0 0.099-0.012 0.135-0.035 0.042-0.028 0.063-0.067 0.063-0.118 0-0.035-0.013-0.086-0.04-0.151-0.027-0.066-0.04-0.117-0.04-0.154 0-0.119 0.101-0.178 0.303-0.178h0.121c0.033 0 0.063 0.011 0.089 0.034 0.027 0.023 0.04 0.052 0.04 0.084z" fill-rule="nonzero"/>
        </g>
        <g transform="matrix(433.33 0 0 433.33 4455.8 5198)">
            <path d="m0.668-0.078c-8e-3 0.029-0.027 0.05-0.054 0.063-0.02 0.01-0.041 0.015-0.064 0.015h-0.208c-0.037-0-0.055-0.013-0.055-0.04 0-0.01 2e-3 -0.023 7e-3 -0.038l0.035-0.104-0.185 0.152c-0.023 0.02-0.047 0.03-0.072 0.03h-0.101l0.209-0.59h0.176l-0.147 0.415 0.149-0.122c0.038-0.031 0.082-0.047 0.131-0.047 0.032 0 0.049 0.016 0.049 0.05 0 0.012-3e-3 0.025-9e-3 0.041l-0.062 0.175h0.201z" fill-rule="nonzero"/>
        </g>
        <g transform="matrix(433.33 0 0 433.33 4745.2 5198)">
            <path d="m0.631-0.078c-0.016 0.052-0.056 0.078-0.12 0.078h-0.185c-0.053-0-0.079-0.017-0.079-0.051-0.035 0.041-0.079 0.061-0.131 0.061-0.038 0-0.069-0.012-0.093-0.035-0.023-0.024-0.035-0.054-0.035-0.092 0-0.068 0.026-0.122 0.078-0.161 0.047-0.036 0.106-0.054 0.175-0.054h0.279l-0.092 0.254h0.203zm-0.315-0.176h-0.108l-0.034 0.114c-2e-3 7e-3 -3e-3 0.014-3e-3 0.019 0 0.029 0.028 0.043 0.083 0.043l0.062-0.176z" fill-rule="nonzero"/>
        </g>
        <g transform="matrix(433.33 0 0 433.33 5018.2 5198)">
            <path d="m0.572-0.078c0 0.023-0.013 0.042-0.038 0.057-0.022 0.014-0.045 0.021-0.069 0.021h-0.187c-0.05-0-0.074-0.021-0.074-0.062 0-0.01 2e-3 -0.021 6e-3 -0.033l0.055-0.159h-0.104l-0.054 0.14c-9e-3 0.024-0.029 0.036-0.059 0.036h-0.052l0.064-0.176c-0.02-4e-3 -0.036-0.015-0.049-0.03-0.013-0.016-0.019-0.034-0.019-0.055 0-0.037 0.018-0.066 0.052-0.087 0.029-0.017 0.064-0.025 0.104-0.025h0.079l-0.041 0.119h0.27l-0.089 0.254h0.205z" fill-rule="nonzero"/>
        </g>
        <g transform="matrix(433.33 0 0 433.33 5265.9 5198)">
            <path d="m0.275-0.687-0.113 0.221-0.089 1e-3 0.058-0.222h0.144z" fill-rule="nonzero"/>
        </g>
        <g transform="matrix(433.33 0 0 433.33 5370 5198)">
            <path d="m0.59-0.078c-1e-3 0.022-0.014 0.04-0.038 0.055-0.023 0.015-0.049 0.023-0.077 0.023h-0.371c-0.071-0-0.107-0.022-0.107-0.065 0-4e-3 0-9e-3 1e-3 -0.013 3e-3 -0.02 0.013-0.035 0.031-0.046 0.016-9e-3 0.034-0.014 0.054-0.013 0.035 1e-3 0.083 0.02 0.143 0.058 0.017-0.022 0.026-0.043 0.026-0.066 0-0.011-7e-3 -0.036-0.021-0.075l-0.055 0.05h-0.098l0.13-0.12c-6e-3 -0.01-0.01-0.018-0.012-0.025-4e-3 -0.012-7e-3 -0.026-7e-3 -0.041l0.12-0.128c0.054 9e-3 0.081 0.034 0.081 0.074 0 0.023-7e-3 0.045-0.021 0.065 0.012 0.032 0.024 0.064 0.037 0.095 0.015 0.042 0.022 0.075 0.022 0.1 0 0.028-0.011 0.052-0.033 0.072h0.195z" fill-rule="nonzero"/>
        </g>
    </g>
</svg>